<?xml version="1.0" encoding="UTF-8"?>
<svg xmlns="http://www.w3.org/2000/svg" xmlns:xlink="http://www.w3.org/1999/xlink" width="107pt" height="120pt" viewBox="0 0 107 120" version="1.1">
<g id="surface1">
<path style=" stroke:none;fill-rule:nonzero;fill:rgb(0%,34.901961%,61.176471%);fill-opacity:1;" d="M 105.640625 90.089844 C 106.476562 88.640625 107 87.007812 107 85.539062 L 107 34.582031 C 107 33.117188 106.480469 31.480469 105.640625 30.03125 L 53.5 60.0625 Z M 105.640625 90.089844 "/>
<path style=" stroke:none;fill-rule:nonzero;fill:rgb(0%,26.666667%,50.980392%);fill-opacity:1;" d="M 58.132812 119.019531 L 102.367188 93.542969 C 103.640625 92.808594 104.800781 91.542969 105.640625 90.089844 L 53.5 60.0625 L 1.359375 90.089844 C 2.199219 91.542969 3.359375 92.808594 4.632812 93.542969 L 48.867188 119.019531 C 51.414062 120.488281 55.585938 120.488281 58.132812 119.019531 Z M 58.132812 119.019531 "/>
<path style=" stroke:none;fill-rule:nonzero;fill:rgb(39.607843%,60.392157%,82.352941%);fill-opacity:1;" d="M 105.640625 30.03125 C 104.800781 28.578125 103.640625 27.3125 102.367188 26.578125 L 58.132812 1.101562 C 55.585938 -0.367188 51.414062 -0.367188 48.867188 1.101562 L 4.632812 26.578125 C 2.085938 28.046875 0 31.648438 0 34.582031 L 0 85.539062 C 0 87.007812 0.519531 88.640625 1.359375 90.089844 L 53.5 60.0625 Z M 105.640625 30.03125 "/>
<path style=" stroke:none;fill-rule:nonzero;fill:rgb(100%,100%,100%);fill-opacity:1;" d="M 53.5 95.640625 C 33.832031 95.640625 17.832031 79.679688 17.832031 60.0625 C 17.832031 40.441406 33.832031 24.480469 53.5 24.480469 C 66.191406 24.480469 78.027344 31.292969 84.386719 42.257812 L 68.953125 51.167969 C 65.769531 45.679688 59.847656 42.269531 53.5 42.269531 C 43.667969 42.269531 35.667969 50.25 35.667969 60.0625 C 35.667969 69.871094 43.667969 77.851562 53.5 77.851562 C 59.847656 77.851562 65.769531 74.441406 68.953125 68.949219 L 84.386719 77.863281 C 78.027344 88.828125 66.191406 95.640625 53.5 95.640625 Z M 53.5 95.640625 "/>
<path style=" stroke:none;fill-rule:nonzero;fill:rgb(100%,100%,100%);fill-opacity:1;" d="M 89.167969 58.085938 L 85.203125 58.085938 L 85.203125 54.128906 L 81.242188 54.128906 L 81.242188 58.085938 L 77.277344 58.085938 L 77.277344 62.039062 L 81.242188 62.039062 L 81.242188 65.992188 L 85.203125 65.992188 L 85.203125 62.039062 L 89.167969 62.039062 Z M 89.167969 58.085938 "/>
<path style=" stroke:none;fill-rule:nonzero;fill:rgb(100%,100%,100%);fill-opacity:1;" d="M 104.027344 58.085938 L 100.066406 58.085938 L 100.066406 54.128906 L 96.101562 54.128906 L 96.101562 58.085938 L 92.140625 58.085938 L 92.140625 62.039062 L 96.101562 62.039062 L 96.101562 65.992188 L 100.066406 65.992188 L 100.066406 62.039062 L 104.027344 62.039062 Z M 104.027344 58.085938 "/>
</g>
</svg>
