<?xml version="1.0" encoding="UTF-8"?>
<svg xmlns="http://www.w3.org/2000/svg" xmlns:xlink="http://www.w3.org/1999/xlink" width="106pt" height="119pt" viewBox="0 0 106 119" version="1.1">
<g id="surface1">
<path style=" stroke:none;fill-rule:nonzero;fill:rgb(89.411765%,65.098039%,38.823529%);fill-opacity:1;" d="M 92.113281 89.097656 C 93.363281 89.097656 93.785156 88.808594 94.375 87.800781 C 94.964844 86.796875 94.683594 85.164062 94.660156 84.722656 C 94.605469 83.746094 94.277344 82.65625 94.238281 82.113281 C 94.207031 81.777344 94.238281 79.652344 94.285156 78.78125 C 95.03125 64.992188 100.96875 61.710938 102.679688 61.335938 C 103.773438 61.015625 104.949219 61.09375 105.988281 61.558594 L 105.988281 34.566406 C 105.988281 31.519531 103.8125 27.773438 101.164062 26.238281 L 57.792969 1.257812 C 55.140625 -0.285156 50.792969 -0.285156 48.140625 1.242188 L 4.816406 26.191406 C 2.167969 27.695312 0 31.441406 0 34.515625 L 0 39.96875 C 0 39.96875 0 40.03125 0 40.0625 L 0 48.023438 C 0.25 48.164062 0.507812 48.308594 0.757812 48.464844 C 1.59375 49.019531 2.429688 49.324219 3.269531 49.90625 C 5.683594 51.371094 7.925781 53.101562 9.953125 55.058594 C 10.34375 55.4375 11.664062 57.089844 11.980469 57.480469 C 12.9375 58.796875 14.011719 60.023438 15.195312 61.144531 C 15.851562 61.738281 16.574219 62.257812 17.351562 62.6875 C 18.621094 63.347656 20.730469 63.199219 21.804688 62.726562 C 30.058594 59.160156 35.242188 60.949219 37.628906 62.382812 C 43.539062 65.917969 45.511719 70.863281 46.140625 76.871094 C 46.222656 77.648438 46.25 78.433594 46.21875 79.214844 C 46.21875 80.640625 46.167969 82.933594 47.679688 83.316406 C 49.84375 83.871094 50.367188 81.5625 50.691406 80.03125 C 51.425781 76.558594 56.054688 74.285156 59.445312 76.03125 C 61.785156 77.238281 62.746094 77.921875 65.054688 76.90625 C 67.953125 75.632812 69.4375 72.398438 70.449219 70.675781 C 71.449219 68.996094 72.898438 67.625 74.636719 66.71875 C 79.152344 63.914062 90.488281 64.640625 90.90625 77.097656 C 90.90625 77.777344 90.90625 79.507812 90.90625 80.5625 C 90.90625 81.75 90.945312 82.910156 90.867188 84.136719 C 90.820312 84.953125 90.671875 85.804688 90.59375 86.640625 C 90.539062 86.648438 90.113281 89.085938 92.113281 89.097656 Z M 92.113281 89.097656 "/>
<path style=" stroke:none;fill-rule:nonzero;fill:rgb(36.862745%,27.45098%,30.196078%);fill-opacity:1;" d="M 105.984375 61.582031 C 105.671875 61.488281 104.78125 60.90625 102.679688 61.359375 C 100.960938 61.730469 95.03125 65.011719 94.285156 78.804688 C 94.242188 79.652344 94.207031 81.777344 94.238281 82.132812 C 94.277344 82.6875 94.605469 83.765625 94.660156 84.742188 C 94.660156 85.1875 95.003906 86.796875 94.375 87.824219 C 93.746094 88.851562 93.363281 89.125 92.113281 89.117188 C 90.113281 89.117188 90.539062 86.671875 90.539062 86.671875 C 90.617188 85.84375 90.765625 85.003906 90.8125 84.167969 C 90.890625 82.9375 90.851562 81.777344 90.851562 80.589844 C 90.851562 79.535156 90.851562 77.816406 90.851562 77.125 C 90.460938 64.644531 79.125 63.941406 74.636719 66.71875 C 72.90625 67.625 71.464844 68.996094 70.46875 70.671875 C 69.460938 72.390625 67.972656 75.628906 65.078125 76.898438 C 62.765625 77.914062 61.808594 77.230469 59.46875 76.027344 C 56.078125 74.277344 51.449219 76.554688 50.714844 80.023438 C 50.390625 81.558594 49.867188 83.859375 47.699219 83.3125 C 46.191406 82.929688 46.242188 80.636719 46.242188 79.207031 C 46.273438 78.425781 46.246094 77.644531 46.164062 76.867188 C 45.535156 70.859375 43.5625 65.914062 37.652344 62.375 C 35.261719 60.945312 30.082031 59.15625 21.828125 62.71875 C 20.714844 63.191406 18.632812 63.339844 17.371094 62.679688 C 16.585938 62.261719 15.847656 61.753906 15.179688 61.164062 C 13.996094 60.046875 12.917969 58.820312 11.964844 57.5 C 11.648438 57.113281 10.328125 55.457031 9.9375 55.082031 C 7.90625 53.121094 5.664062 51.394531 3.253906 49.929688 C 2.40625 49.375 1.582031 49.019531 0.742188 48.484375 C 0.488281 48.328125 0.234375 48.1875 -0.015625 48.046875 L -0.015625 84.449219 C -0.015625 87.503906 2.15625 91.25 4.808594 92.777344 L 48.171875 117.757812 C 50.824219 119.292969 55.164062 119.292969 57.816406 117.757812 L 101.183594 92.808594 C 103.832031 91.285156 106 87.535156 106 84.484375 Z M 105.984375 61.582031 "/>
<path style=" stroke:none;fill-rule:nonzero;fill:rgb(100%,100%,100%);fill-opacity:1;" d="M 58.484375 55.464844 C 55.480469 57.191406 50.574219 57.191406 47.578125 55.464844 L 3.234375 32.148438 C 3.738281 32.640625 48.203125 58.390625 48.203125 58.390625 C 50.851562 59.921875 55.191406 59.921875 57.84375 58.390625 C 57.84375 58.390625 102.257812 32.71875 102.753906 32.222656 Z M 58.484375 55.464844 "/>
<path style=" stroke:none;fill-rule:nonzero;fill:rgb(100%,100%,100%);fill-opacity:1;" d="M 47.523438 4.582031 C 50.523438 2.871094 55.429688 2.871094 58.429688 4.589844 L 63.804688 6.808594 C 63.300781 6.316406 57.796875 2.761719 57.796875 2.761719 C 55.152344 1.234375 50.8125 1.230469 48.164062 2.761719 C 48.164062 2.761719 39.378906 7.90625 38.878906 8.398438 Z M 47.523438 4.582031 "/>
</g>
</svg>
