<?xml version="1.0" encoding="UTF-8"?>
<svg xmlns="http://www.w3.org/2000/svg" xmlns:xlink="http://www.w3.org/1999/xlink" width="168pt" height="120pt" viewBox="0 0 168 120" version="1.1">
<g id="surface1">
<path style=" stroke:none;fill-rule:nonzero;fill:rgb(38.039216%,85.490196%,98.431373%);fill-opacity:1;" d="M 133.085938 59.769531 C 133.085938 53.21875 124.960938 47.007812 112.5 43.15625 C 115.375 30.335938 114.097656 20.136719 108.46875 16.871094 C 107.167969 16.105469 105.652344 15.742188 103.996094 15.742188 L 103.996094 20.238281 C 104.914062 20.238281 105.652344 20.421875 106.269531 20.761719 C 108.988281 22.335938 110.167969 28.320312 109.246094 36.023438 C 109.027344 37.917969 108.667969 39.914062 108.226562 41.949219 C 104.316406 40.980469 100.042969 40.234375 95.550781 39.75 C 92.855469 36.023438 90.058594 32.636719 87.246094 29.671875 C 93.753906 23.566406 99.863281 20.21875 104.015625 20.21875 L 104.015625 15.722656 C 98.527344 15.722656 91.339844 19.675781 84.070312 26.527344 C 76.800781 19.714844 69.613281 15.804688 64.125 15.804688 L 64.125 20.300781 C 68.257812 20.300781 74.386719 23.625 80.894531 29.691406 C 78.101562 32.65625 75.304688 36.023438 72.648438 39.75 C 68.136719 40.234375 63.863281 40.980469 59.949219 41.96875 C 59.488281 39.953125 59.152344 37.996094 58.910156 36.121094 C 57.972656 28.421875 59.132812 22.4375 61.828125 20.84375 C 62.425781 20.480469 63.207031 20.320312 64.125 20.320312 L 64.125 15.824219 C 62.445312 15.824219 60.929688 16.1875 59.609375 16.953125 C 54 20.21875 52.742188 30.398438 55.636719 43.179688 C 43.21875 47.046875 35.132812 53.238281 35.132812 59.769531 C 35.132812 66.320312 43.257812 72.527344 55.71875 76.378906 C 52.84375 89.199219 54.121094 99.398438 59.75 102.664062 C 61.050781 103.429688 62.566406 103.792969 64.246094 103.792969 C 69.734375 103.792969 76.921875 99.84375 84.1875 92.988281 C 91.457031 99.800781 98.644531 103.710938 104.136719 103.710938 C 105.8125 103.710938 107.328125 103.347656 108.648438 102.582031 C 114.257812 99.316406 115.515625 89.136719 112.621094 76.359375 C 125 72.507812 133.085938 66.300781 133.085938 59.769531 Z M 107.089844 46.324219 C 106.351562 48.921875 105.429688 51.605469 104.394531 54.285156 C 103.578125 52.671875 102.71875 51.058594 101.78125 49.449219 C 100.859375 47.835938 99.882812 46.261719 98.902344 44.730469 C 101.738281 45.152344 104.476562 45.679688 107.089844 46.324219 Z M 97.949219 67.792969 C 96.386719 70.511719 94.789062 73.09375 93.132812 75.492188 C 90.160156 75.753906 87.144531 75.894531 84.109375 75.894531 C 81.09375 75.894531 78.082031 75.753906 75.125 75.511719 C 73.464844 73.113281 71.847656 70.550781 70.292969 67.851562 C 68.773438 65.210938 67.398438 62.53125 66.136719 59.828125 C 67.378906 57.128906 68.773438 54.425781 70.273438 51.785156 C 71.828125 49.0625 73.425781 46.484375 75.082031 44.085938 C 78.058594 43.824219 81.074219 43.683594 84.109375 43.683594 C 87.125 43.683594 90.140625 43.824219 93.097656 44.066406 C 94.75 46.464844 96.371094 49.023438 97.925781 51.726562 C 99.445312 54.367188 100.820312 57.046875 102.082031 59.746094 C 100.820312 62.449219 99.445312 65.148438 97.949219 67.792969 Z M 104.394531 65.171875 C 105.472656 67.871094 106.390625 70.574219 107.148438 73.191406 C 104.535156 73.839844 101.78125 74.382812 98.921875 74.804688 C 99.902344 73.253906 100.882812 71.660156 101.800781 70.027344 C 102.71875 68.414062 103.578125 66.78125 104.394531 65.171875 Z M 84.148438 86.679688 C 82.292969 84.742188 80.4375 82.585938 78.597656 80.226562 C 80.394531 80.308594 82.234375 80.371094 84.085938 80.371094 C 85.964844 80.371094 87.824219 80.328125 89.640625 80.226562 C 87.84375 82.585938 85.984375 84.742188 84.148438 86.679688 Z M 69.296875 74.804688 C 66.460938 74.382812 63.722656 73.859375 61.109375 73.214844 C 61.847656 70.613281 62.765625 67.933594 63.804688 65.25 C 64.621094 66.863281 65.480469 68.476562 66.417969 70.089844 C 67.359375 71.703125 68.316406 73.273438 69.296875 74.804688 Z M 84.050781 32.855469 C 85.90625 34.792969 87.761719 36.949219 89.601562 39.308594 C 87.804688 39.226562 85.964844 39.167969 84.109375 39.167969 C 82.234375 39.167969 80.375 39.207031 78.558594 39.308594 C 80.355469 36.949219 82.214844 34.792969 84.050781 32.855469 Z M 69.277344 44.730469 C 68.296875 46.28125 67.316406 47.875 66.398438 49.507812 C 65.480469 51.121094 64.621094 52.734375 63.804688 54.347656 C 62.726562 51.644531 61.808594 48.945312 61.050781 46.324219 C 63.664062 45.699219 66.417969 45.152344 69.277344 44.730469 Z M 51.207031 69.96875 C 44.136719 66.925781 39.566406 62.933594 39.566406 59.769531 C 39.566406 56.601562 44.136719 52.59375 51.207031 49.566406 C 52.921875 48.824219 54.796875 48.15625 56.738281 47.53125 C 57.871094 51.484375 59.371094 55.59375 61.226562 59.808594 C 59.394531 64 57.914062 68.09375 56.796875 72.023438 C 54.820312 71.398438 52.941406 70.714844 51.207031 69.96875 Z M 61.945312 98.773438 C 59.234375 97.203125 58.054688 91.214844 58.972656 83.515625 C 59.191406 81.621094 59.550781 79.625 59.992188 77.585938 C 63.902344 78.554688 68.175781 79.300781 72.667969 79.785156 C 75.363281 83.515625 78.160156 86.902344 80.972656 89.863281 C 74.464844 95.972656 68.359375 99.316406 64.203125 99.316406 C 63.304688 99.296875 62.546875 99.117188 61.945312 98.773438 Z M 109.308594 83.414062 C 110.246094 91.113281 109.085938 97.101562 106.390625 98.691406 C 105.792969 99.054688 105.015625 99.21875 104.09375 99.21875 C 99.960938 99.21875 93.835938 95.890625 87.324219 89.824219 C 90.117188 86.859375 92.914062 83.492188 95.566406 79.765625 C 100.082031 79.28125 104.355469 78.535156 108.269531 77.546875 C 108.726562 79.582031 109.085938 81.539062 109.308594 83.414062 Z M 116.992188 69.96875 C 115.273438 70.714844 113.402344 71.378906 111.460938 72.003906 C 110.328125 68.054688 108.828125 63.941406 106.972656 59.726562 C 108.804688 55.535156 110.285156 51.441406 111.402344 47.511719 C 113.378906 48.136719 115.253906 48.824219 117.011719 49.566406 C 124.082031 52.613281 128.652344 56.601562 128.652344 59.769531 C 128.632812 62.933594 124.0625 66.945312 116.992188 69.96875 Z M 116.992188 69.96875 "/>
<path style=" stroke:none;fill-rule:nonzero;fill:rgb(38.039216%,85.490196%,98.431373%);fill-opacity:1;" d="M 93.210938 59.769531 C 93.210938 64.855469 89.128906 68.980469 84.085938 68.980469 C 79.050781 68.980469 74.964844 64.855469 74.964844 59.769531 C 74.964844 54.679688 79.050781 50.554688 84.085938 50.554688 C 89.128906 50.554688 93.210938 54.679688 93.210938 59.769531 Z M 93.210938 59.769531 "/>
</g>
</svg>
