<?xml version="1.0" encoding="UTF-8"?>
<svg xmlns="http://www.w3.org/2000/svg" xmlns:xlink="http://www.w3.org/1999/xlink" width="330pt" height="120pt" viewBox="0 0 330 120" version="1.1">
<g id="surface1">
<path style=" stroke:none;fill-rule:nonzero;fill:rgb(6.666667%,4.313725%,3.529412%);fill-opacity:1;" d="M 99.328125 95.808594 L 77.878906 59.730469 L 99.328125 23.648438 L 109.671875 59.730469 Z M 51.589844 92.289062 L 24.640625 65.558594 L 67.539062 65.558594 L 88.988281 101.640625 Z M 51.589844 27.058594 L 88.878906 17.710938 L 67.429688 53.789062 L 24.53125 53.789062 Z M 106.371094 0 L 57.640625 12.652344 L 50.378906 25.078125 L 35.75 24.96875 L 0 59.730469 L 35.75 94.492188 L 50.378906 94.378906 L 57.640625 106.808594 L 106.371094 119.570312 L 119.460938 72.160156 L 112.089844 59.839844 L 119.460938 47.519531 Z M 217.03125 35.089844 C 210.539062 35.089844 206.140625 37.839844 202.839844 42.898438 L 202.621094 42.898438 L 202.621094 36.410156 L 191.179688 36.410156 L 191.179688 84.148438 L 202.839844 84.148438 L 202.839844 57.089844 C 202.839844 50.601562 206.910156 46.089844 212.519531 46.089844 C 217.800781 46.089844 221.761719 49.28125 221.761719 54.890625 L 221.761719 84.261719 L 233.421875 84.261719 L 233.421875 53.019531 C 233.53125 42.570312 226.929688 35.089844 217.03125 35.089844 Z M 173.46875 64.019531 C 173.46875 70.402344 169.839844 74.800781 163.898438 74.800781 C 158.511719 74.800781 155.101562 71.71875 155.101562 66.109375 L 155.101562 36.410156 L 143.441406 36.410156 L 143.441406 68.308594 C 143.441406 78.757812 149.378906 85.582031 160.050781 85.582031 C 166.761719 85.582031 170.5 83.050781 173.691406 78.652344 L 174.019531 78.652344 L 174.019531 84.261719 L 185.242188 84.261719 L 185.242188 36.410156 L 173.578125 36.410156 L 173.578125 64.019531 Z M 239.691406 36.410156 L 251.347656 36.410156 L 251.347656 84.148438 L 239.691406 84.148438 Z M 239.691406 21.558594 L 251.347656 21.558594 L 251.347656 31.128906 L 239.691406 31.128906 Z M 317.460938 36.410156 L 310.53125 57.96875 C 308.992188 62.371094 307.78125 68.421875 307.78125 68.421875 L 307.449219 68.421875 C 307.449219 68.421875 305.910156 62.371094 304.371094 57.96875 L 296.558594 36.410156 L 284.019531 36.410156 L 296.890625 70.402344 C 299.640625 77.660156 300.519531 80.738281 300.519531 83.378906 C 300.519531 87.339844 298.429688 89.871094 293.480469 89.871094 L 288.96875 89.871094 L 288.96875 99.878906 L 296.449219 99.878906 C 306.128906 99.878906 309.539062 96.03125 313.171875 85.46875 L 330 36.519531 L 317.460938 36.519531 Z M 273.128906 70.179688 L 273.128906 44.878906 L 280.609375 44.878906 L 280.609375 36.519531 L 273.128906 36.519531 L 273.128906 21.558594 L 261.46875 21.558594 L 261.46875 36.410156 L 254.871094 36.410156 L 254.871094 44.769531 L 261.46875 44.769531 L 261.46875 72.820312 C 261.46875 81.839844 268.289062 84.261719 274.449219 84.261719 C 279.511719 84.261719 280.828125 84.039062 280.828125 84.039062 L 280.828125 74.800781 L 277.859375 74.800781 C 275.109375 74.910156 273.128906 73.699219 273.128906 70.179688 Z M 273.128906 70.179688 "/>
</g>
</svg>
