<?xml version="1.0" encoding="UTF-8"?>
<svg xmlns="http://www.w3.org/2000/svg" xmlns:xlink="http://www.w3.org/1999/xlink" width="120pt" height="120pt" viewBox="0 0 120 120" version="1.1">
<g id="surface1">
<path style=" stroke:none;fill-rule:nonzero;fill:rgb(0%,0%,0%);fill-opacity:1;" d="M 25.40625 0 L 30.796875 0 L 30.796875 5.34375 L 35.765625 5.34375 L 35.765625 0 L 41.15625 0 L 41.15625 16.171875 L 35.765625 16.171875 L 35.765625 10.78125 L 30.84375 10.78125 L 30.84375 16.171875 L 25.40625 16.171875 M 48.28125 5.390625 L 43.523438 5.390625 L 43.523438 0 L 58.453125 0 L 58.453125 5.390625 L 53.671875 5.390625 L 53.671875 16.171875 L 48.28125 16.171875 M 60.820312 0 L 66.46875 0 L 69.9375 5.695312 L 73.40625 0 L 79.054688 0 L 79.054688 16.171875 L 73.664062 16.171875 L 73.664062 8.15625 L 69.890625 13.96875 L 66.117188 8.15625 L 66.117188 16.171875 L 60.820312 16.171875 M 81.726562 0 L 87.117188 0 L 87.117188 10.828125 L 94.757812 10.828125 L 94.757812 16.171875 L 81.726562 16.171875 "/>
<path style=" stroke:none;fill-rule:nonzero;fill:rgb(89.411765%,30.196078%,14.901961%);fill-opacity:1;" d="M 25.21875 110.390625 L 17.484375 23.578125 L 102.515625 23.578125 L 94.78125 110.34375 L 59.929688 120 "/>
<path style=" stroke:none;fill-rule:nonzero;fill:rgb(94.509804%,39.607843%,16.078431%);fill-opacity:1;" d="M 60 112.617188 L 60 30.703125 L 94.757812 30.703125 L 88.125 104.765625 "/>
<path style=" stroke:none;fill-rule:nonzero;fill:rgb(92.156863%,92.156863%,92.156863%);fill-opacity:1;" d="M 33.28125 41.320312 L 60 41.320312 L 60 51.960938 L 44.953125 51.960938 L 45.9375 62.859375 L 60 62.859375 L 60 73.476562 L 36.1875 73.476562 M 36.65625 78.820312 L 47.34375 78.820312 L 48.09375 87.328125 L 60 90.515625 L 60 101.625 L 38.15625 95.53125 "/>
<path style=" stroke:none;fill-rule:nonzero;fill:rgb(100%,100%,100%);fill-opacity:1;" d="M 86.625 41.320312 L 59.953125 41.320312 L 59.953125 51.960938 L 85.640625 51.960938 M 84.679688 62.859375 L 59.953125 62.859375 L 59.953125 73.5 L 73.078125 73.5 L 71.835938 87.328125 L 59.953125 90.515625 L 59.953125 101.578125 L 81.75 95.53125 "/>
</g>
</svg>
