<?xml version="1.0" encoding="UTF-8"?>
<svg xmlns="http://www.w3.org/2000/svg" xmlns:xlink="http://www.w3.org/1999/xlink" width="120pt" height="120pt" viewBox="0 0 120 120" version="1.1">
<g id="surface1">
<path style=" stroke:none;fill-rule:nonzero;fill:rgb(96.862745%,87.45098%,11.764706%);fill-opacity:1;" d="M 18 0 L 102 0 C 111.941406 0 120 8.058594 120 18 L 120 102 C 120 111.941406 111.941406 120 102 120 L 18 120 C 8.058594 120 0 111.941406 0 102 L 0 18 C 0 8.058594 8.058594 0 18 0 Z M 18 0 "/>
<path style=" stroke:none;fill-rule:nonzero;fill:rgb(0%,0%,0%);fill-opacity:1;" d="M 75.9375 86.71875 C 78.28125 90.703125 81.5625 93.515625 86.953125 93.515625 C 91.640625 93.515625 94.6875 91.171875 94.6875 87.890625 C 94.6875 84.140625 91.640625 82.734375 86.484375 80.390625 L 83.671875 79.21875 C 75.46875 75.703125 70.078125 71.484375 70.078125 62.34375 C 70.078125 53.90625 76.40625 47.34375 86.484375 47.34375 C 93.75 47.34375 98.90625 49.921875 102.421875 56.484375 L 93.75 62.109375 C 91.875 58.59375 89.765625 57.1875 86.484375 57.1875 C 83.203125 57.1875 81.09375 59.296875 81.09375 62.109375 C 81.09375 65.390625 83.203125 66.796875 88.125 68.90625 L 90.9375 70.078125 C 100.546875 74.296875 105.9375 78.28125 105.9375 87.890625 C 105.9375 97.96875 97.96875 103.59375 87.1875 103.59375 C 76.640625 103.59375 69.84375 98.671875 66.5625 92.109375 Z M 36.09375 87.65625 C 37.96875 90.703125 39.375 93.515625 43.359375 93.515625 C 47.109375 93.515625 49.453125 92.109375 49.453125 86.484375 L 49.453125 47.578125 L 60.703125 47.578125 L 60.703125 86.015625 C 60.703125 97.734375 53.90625 102.890625 43.828125 102.890625 C 34.6875 102.890625 29.53125 98.203125 26.953125 92.578125 Z M 36.09375 87.65625 "/>
</g>
</svg>
