<?xml version="1.0" encoding="UTF-8"?>
<svg xmlns="http://www.w3.org/2000/svg" xmlns:xlink="http://www.w3.org/1999/xlink" width="120pt" height="119pt" viewBox="0 0 120 119" version="1.1">
<defs>
<linearGradient id="linear0" gradientUnits="userSpaceOnUse" x1="55.549179" y1="77.070274" x2="110.14919" y2="131.85291" gradientTransform="matrix(1.090909,0,0,1.081818,-49.022727,-72.98892)">
<stop offset="0" style="stop-color:rgb(21.960784%,49.411765%,72.156863%);stop-opacity:1;"/>
<stop offset="1" style="stop-color:rgb(21.176471%,41.176471%,58.039216%);stop-opacity:1;"/>
</linearGradient>
<linearGradient id="linear1" gradientUnits="userSpaceOnUse" x1="89.136749" y1="111.92053" x2="147.77737" y2="168.1012" gradientTransform="matrix(1.090909,0,0,1.081818,-49.022727,-72.98892)">
<stop offset="0" style="stop-color:rgb(100%,87.843137%,32.156863%);stop-opacity:1;"/>
<stop offset="1" style="stop-color:rgb(100%,76.470588%,19.215686%);stop-opacity:1;"/>
</linearGradient>
</defs>
<g id="surface1">
<path style=" stroke:none;fill-rule:nonzero;fill:url(#linear0);" d="M 59.796875 0 C 29.214844 0 31.125 13.152344 31.125 13.152344 L 31.160156 26.773438 L 60.339844 26.773438 L 60.339844 30.867188 L 19.566406 30.867188 C 19.566406 30.867188 0 28.664062 0 59.261719 C 0 89.863281 17.078125 88.777344 17.078125 88.777344 L 27.273438 88.777344 L 27.273438 74.578125 C 27.273438 74.578125 26.722656 57.640625 44.078125 57.640625 C 61.4375 57.640625 73.023438 57.640625 73.023438 57.640625 C 73.023438 57.640625 89.285156 57.902344 89.285156 42.054688 C 89.285156 26.210938 89.285156 15.855469 89.285156 15.855469 C 89.285156 15.855469 91.753906 0 59.796875 0 Z M 43.703125 9.160156 C 46.609375 9.160156 48.953125 11.488281 48.953125 14.367188 C 48.953125 17.246094 46.609375 19.574219 43.703125 19.574219 C 40.800781 19.574219 38.453125 17.246094 38.453125 14.367188 C 38.453125 11.488281 40.800781 9.160156 43.703125 9.160156 Z M 43.703125 9.160156 "/>
<path style=" stroke:none;fill-rule:nonzero;fill:url(#linear1);" d="M 60.664062 118.832031 C 91.242188 118.832031 89.335938 105.683594 89.335938 105.683594 L 89.300781 92.058594 L 60.117188 92.058594 L 60.117188 87.96875 L 100.890625 87.96875 C 100.890625 87.96875 120.460938 90.167969 120.460938 59.570312 C 120.460938 28.972656 103.378906 30.058594 103.378906 30.058594 L 93.1875 30.058594 L 93.1875 44.253906 C 93.1875 44.253906 93.734375 61.191406 76.378906 61.191406 C 59.023438 61.191406 47.4375 61.191406 47.4375 61.191406 C 47.4375 61.191406 31.175781 60.933594 31.175781 76.777344 C 31.175781 92.625 31.175781 102.976562 31.175781 102.976562 C 31.175781 102.976562 28.707031 118.832031 60.664062 118.832031 Z M 76.753906 109.671875 C 73.851562 109.671875 71.503906 107.34375 71.503906 104.464844 C 71.503906 101.585938 73.851562 99.257812 76.753906 99.257812 C 79.660156 99.257812 82.003906 101.585938 82.003906 104.464844 C 82.003906 107.34375 79.660156 109.671875 76.753906 109.671875 Z M 76.753906 109.671875 "/>
</g>
</svg>
